<svg width="16" height="18" viewBox="0 0 16 18" xmlns="http://www.w3.org/2000/svg"><title>ic-cruise</title><path d="M14.366 16.16c-1.106 0-2.212-.375-3.182-1.05-1.94 1.36-4.423 1.36-6.364 0-.97.675-2.076 1.05-3.182 1.05H.048v1.59h1.59c1.098 0 2.18-.278 3.182-.788 2.005 1.027 4.36 1.027 6.364 0 1.002.518 2.084.788 3.182.788h1.59v-1.59h-1.59zM1.6 14.567h.038c1.273 0 2.403-.7 3.182-1.59.78.89 1.91 1.59 3.182 1.59 1.273 0 2.402-.7 3.182-1.59.78.89 1.91 1.59 3.182 1.59h.04l1.503-5.313c.06-.207.045-.43-.05-.62-.096-.192-.27-.335-.478-.4L14.365 7.9V4.228c0-.875-.716-1.59-1.59-1.59h-2.388V.25h-4.77v2.386H3.23c-.876 0-1.592.716-1.592 1.59v3.676l-1.026.334c-.206.064-.38.207-.477.398-.095.19-.12.414-.048.62L1.6 14.57zm1.63-10.34h9.545v3.157L8.002 5.818 3.23 7.385V4.227z" fill-rule="evenodd" opacity=".2"/></svg>