<svg width="10" height="18" viewBox="0 0 10 18" xmlns="http://www.w3.org/2000/svg"><title>ic-menu-dollar</title><path d="M5.383 7.9c-2.23-.59-2.947-1.2-2.947-2.15 0-1.09.992-1.85 2.652-1.85 1.75 0 2.397.85 2.456 2.1h2.17c-.068-1.72-1.1-3.3-3.152-3.81V0H3.615v2.16C1.71 2.58.177 3.84.177 5.77c0 2.31 1.876 3.46 4.617 4.13 2.456.6 2.947 1.48 2.947 2.41 0 .69-.48 1.79-2.65 1.79-2.023 0-2.82-.92-2.927-2.1H0c.118 2.19 1.73 3.42 3.615 3.83V18h2.947v-2.15C8.477 15.48 10 14.35 10 12.3c0-2.84-2.387-3.81-4.617-4.4z" fill="#FFF" fill-rule="evenodd" opacity=".54"/></svg>