<svg width="20" height="17" viewBox="0 0 20 17" xmlns="http://www.w3.org/2000/svg"><title>ic-menu-list</title><path d="M1.622 6C.724 6 0 6.723 0 7.618c0 .896.724 1.62 1.622 1.62.897 0 1.62-.724 1.62-1.62C3.242 6.723 2.52 6 1.622 6zm0 7C.724 13 0 13.723 0 14.618c0 .896.724 1.62 1.622 1.62.897 0 1.62-.724 1.62-1.62 0-.895-.723-1.618-1.62-1.618zm0-13C.724 0 0 .723 0 1.618c0 .896.724 1.62 1.622 1.62.897 0 1.62-.724 1.62-1.62C3.242.723 2.52 0 1.622 0zm3.243 15.644H20v-2.158H4.865v2.158zm0-6.473H20V7.016H4.865V9.17zm0-8.63V2.7H20V.54H4.865z" fill="#FFF" fill-rule="evenodd" opacity=".54"/></svg>