<svg width="16" height="16" viewBox="0 0 16 16" xmlns="http://www.w3.org/2000/svg"><title>ic-static</title><path d="M14.095 7.62h-1.143V4.57c0-.837-.685-1.522-1.523-1.522H8.38V1.905C8.38.853 7.53 0 6.477 0 5.427 0 4.57.853 4.57 1.905v1.143H1.525C.687 3.048.01 3.733.01 4.57v2.9h1.134c1.135 0 2.057.922 2.057 2.057 0 1.135-.92 2.057-2.055 2.057H0v2.896C0 15.314.686 16 1.524 16H4.42v-1.143c0-1.135.92-2.057 2.056-2.057 1.135 0 2.057.922 2.057 2.057V16h2.896c.835 0 1.52-.686 1.52-1.524V11.43h1.143c1.052 0 1.905-.855 1.905-1.906 0-1.052-.854-1.905-1.906-1.905z" fill-rule="evenodd" opacity=".2"/></svg>