<svg width="19" height="19" viewBox="0 0 19 19" xmlns="http://www.w3.org/2000/svg"><title>ic-testimonial</title><g fill="none" fill-rule="evenodd" opacity=".2"><path d="M-2-2h22v22H-2V-2zm14.07 5.876l-1.62-1.623c-.183-.183-.467-.183-.65 0L3.5 8.57v2.263h2.264l6.307-6.306c.186-.175.186-.468 0-.65z"/><path d="M17.1 0H1.9C.855 0 .01.855.01 1.9L0 19l3.8-3.8h13.3c1.045 0 1.9-.855 1.9-1.9V1.9C19 .855 18.145 0 17.1 0zM3.8 11.4V9.053l6.536-6.536c.19-.19.484-.19.675 0L12.695 4.2c.19.19.19.484 0 .673L6.146 11.4H3.8zm11.4 0H8.075l1.9-1.9H15.2v1.9z" fill="#000"/></g></svg>