<svg width="271" height="24" viewBox="0 0 271 24" xmlns="http://www.w3.org/2000/svg"><title>Logo-Witatour-white</title><g fill="none" fill-rule="evenodd"><path stroke="#000" stroke-width=".1" d="M2.757.707L.35 3.143z"/><path d="M2.718 1.02h54.52c.543 0 .893.316.815.905-.077.668-.233 1.296-.31 1.964-.66 4.554-1.32 9.15-1.98 13.67-.04.195-.04.352 0 .55.077.43.582-.63.62-.826.35-.904.738-1.73 1.127-2.632.93-2.2 1.862-4.4 2.756-6.6.7-1.65 1.397-3.38 2.135-5.03.236-.51.43-1.02.66-1.53.12-.315.275-.512.586-.63.738-.353 1.903-.118 2.718-.118 2.835.04 5.67.04 8.504.08h2.252c.93 0 .387 1.885.31 2.356-.62 4.087-1.243 8.173-1.864 12.22-.078.51-.117.98-.233 1.413-.04.275-.194.668 0 .943.04.04.272-.393.272-.432.116-.354.272-.668.427-1.02l.933-2.24c.738-1.73 1.514-3.497 2.252-5.226.738-1.73 1.553-3.497 2.252-5.226.27-.59.503-1.178.736-1.728.117-.354.272-.63.62-.865.7-.43 1.943-.236 2.758-.276C89.934.704 94.32.668 98.63.668c.117 0 .31-.04.505 0 .583.078 1.05.982 1.282 1.375.543 1.02 1.048 2.043 1.592 3.103.113.236.19.51.424.63.505.313 1.204.392 1.786.392h16.116c.815 0 1.514.118 2.097.707.427.51.932.943 1.36 1.414.193.194.66.59.426.9-.235.354-1.05.197-1.4.197-.62 0-1.28 0-1.903-.04h-14.64c-.272 0-.505-.196-.815-.08-.233.198.04.512.194.67.387.628.814 1.296 1.24 1.924.545.866 1.05 1.65 1.632 2.516.93 1.413 1.863 2.866 2.795 4.28 1.165 1.73 2.252 3.497 3.417 5.226.622.943 1.243 1.846 1.98 2.75.66.825 1.36 1.532 2.175 2.2.66.55 1.36 1.02 2.214 1.178-1.05-1.06-2.136-2.356-2.6-3.81-.35-1.06-.62-2.24-.43-3.38.117-.902.428-1.727.855-2.512.97-1.846 2.795-3.3 4.775-3.81 1.826-.432 3.845-.118 5.476.825 2.02 1.18 3.495 2.946 3.845 5.343.235 1.493.04 3.064-.62 4.44-.504 1.02-1.242 1.963-2.135 2.67-.738.63-1.592 1.06-2.524 1.376-.35.117-.7.275-1.125.275-4.738 0-9.475-.04-14.25-.04-1.593 0-3.186.078-4.74-.197-3.338-.59-6.406-2.318-8.425-5.107-.97-1.375-1.787-2.868-2.72-4.243-1.514-2.436-3.067-4.793-4.542-7.23-2.02-3.22-4.04-6.402-6.058-9.624-.117-.197-.427-.826-.66-.354l-.816 1.532c-.35.668-.66 1.296-.97 1.964-.855 1.847-1.71 3.693-2.563 5.5-1.71 3.772-3.493 7.543-5.24 11.275-.855 1.847-1.67 3.732-2.524 5.54-.118.353-.35.628-.7.824-.39.237-.855.198-1.243.198H58.556c-.854 0-.505-.982-.388-1.572.698-4.282 1.358-8.564 2.096-12.846.038-.275.038-.825-.272-.354-.39.55-.622 1.218-.893 1.847-.39.864-.74 1.728-1.205 2.593-.97 1.964-1.942 3.928-2.912 5.932-.39.825-.816 1.57-1.165 2.357-.273.55-.545 1.06-.817 1.61-.193.394-.62.433-1.01.433h-9.9c-.855 0-.7-.943-.66-1.572.31-2.553.58-5.067.893-7.62.388-3.615.815-7.308 1.165-10.922.234-2.04.39-4.163.622-6.206.04-.235.194-.667 0-.903-.233-.274-.66-.235-.97-.235H1.124c-.426 0-1.513 0-.814-.707M198.348 1.73c.35-.984 1.32-1.376 2.29-1.376h6.525c1.126 0 .427 1.728.272 2.317-1.165 3.578-2.253 7.23-3.417 10.807-1.398 4.518-2.835 8.996-4.233 13.514-.272.865-.544 1.69-.815 2.593-.195.55-.31.943-.7 1.336-.815.824-1.902.627-2.912.627h-4.077c-.502 0-1.59.197-1.86-.314-.234-.353 0-.864.077-1.257.194-.55.35-1.14.543-1.65.582-1.886 1.203-3.77 1.786-5.657 1.242-3.93 2.485-7.898 3.727-11.787.777-3.064 1.787-6.09 2.796-9.153zm11.532 4.006c.35-1.022.66-2.122 1.01-3.143.272-.864.428-1.807 1.4-2.16.814-.315 1.862-.12 2.717-.12h18.716c.738 0 1.942.12 1.67 1.22-.505 1.963-.97 3.967-1.398 5.97-.078.393-.117.747-.427 1.06-.388.394-.893.433-1.36.433-1.28 0-2.523-.04-3.805-.04-.35 0-.66 0-1.01.04-.97.197-1.63.904-1.902 1.847-.27.864-.502 1.728-.735 2.593-1.048 3.77-2.174 7.582-3.184 11.314-.272.904-.505 1.846-.74 2.75-.192.668-.347 1.296-.54 1.964-.08.354-.195.825-.35 1.18-.62 1.177-2.175.902-3.263.902h-3.417c-.856 0-1.71.04-2.565 0-1.32-.04-.7-1.492-.504-2.24.66-2.12 1.32-4.202 2.02-6.363 1.205-3.772 2.447-7.543 3.65-11.275.08-.314.234-.63.31-.943.08-.354.196-.904-.04-1.257-.19-.314-.62-.393-.93-.51-.853-.12-1.785-.04-2.6-.04-.817 0-1.788.078-2.565-.04-.854-.117-.854-.864-.62-1.532.077-.47.31-1.02.465-1.61zm45.394 24.71c-.35-3.85-.7-7.66-1.048-11.51-.427-4.557-.854-9.154-1.282-13.672l-.35-3.77c-.193-1.22-1.358-1.22-1.358-1.22h-7.69c-1.358-.038-1.98 1.062-1.98 1.062-1.98 3.693-4 7.346-5.98 11.04-1.785 3.26-3.533 6.52-5.32 9.82-1.513 2.75-2.95 5.46-4.425 8.25-.35.904.624 1.18.624 1.18h6.33c2.33.078 3.183-1.022 3.183-1.022l.66-1.218c.622-1.336 2.136-1.336 2.136-1.336l6.758.118c1.28.236 1.36 1.218 1.36 1.218l.078 1.06c.077 1.297 1.203 1.18 1.203 1.18h5.865c1.514.038 1.242-1.18 1.242-1.18zm-9.474-8.682h-5.71c-.62-.04.312-1.65.43-1.885.58-1.26 1.202-2.478 1.785-3.736.893-1.807 1.708-3.575 2.6-5.42.118-.276.273-.512.35-.747 0 0 .117-.198.273-.12 0 0 .077-.078.077.59.195 3.536.35 7.11.505 10.646.04-.04.156.708-.31.668zm22.987-20.468c.35-.432 1.01-.942 1.63-.942h3.69c2.485 0 5.01 0 7.495-.04h9.008c.622 0 1.282-.078 1.787.354.504.432.27 1.02.116 1.57-.116.512-.233.944-.35 1.416-.31 1.14-.582 2.24-.892 3.417-.27.986-.425 1.85-1.63 1.928-1.05.08-2.173 0-3.22 0-1.05 0-2.448-.235-3.224.668-.738.904-.932 2.24-1.204 3.38-.543 1.963-1.01 3.888-1.552 5.852-.505 1.925-1.01 3.81-1.515 5.736-.504 1.886-.893 3.81-1.514 5.657-.233.63-.893 1.297-1.553 1.297h-8.196c-1.163 0-.347-1.69-.192-2.24 1.204-3.732 2.408-7.385 3.573-11.117.62-1.967 1.28-3.89 1.903-5.856.272-.864 1.243-2.79 0-3.182-.504-.197-1.01-.118-1.553-.118h-2.138c-.7 0-1.553.118-2.252-.04-1.008-.274-.387-1.53-.193-2.2.35-1.06.7-2.12 1.01-3.18.272-.826.427-1.77.97-2.36zM325.79.354h4.894c.272 0 .505 0 .738.078.62.236.737.747.66 1.336-.078.628-.194 1.218-.272 1.846-.116.982-.31 2.004-.505 2.986-.62 3.81-1.242 7.62-1.825 11.432-.194 1.14-.35 2.24-.543 3.3-.272 1.61.388 3.418 2.252 3.418 1.94 0 3.763-1.532 4.074-3.457.194-.982.35-2.004.544-2.986.736-4.203 1.474-8.407 2.212-12.65.116-.707.272-1.375.35-2.12.116-.826.116-1.966.62-2.673.622-.864 2.098-.59 2.952-.59h3.495c.736 0 1.202.708 1.125 1.415-.078.665-.272 1.333-.39 2-.193.944-.348 1.887-.58 2.87-.35 1.925-.74 3.81-1.127 5.735-.74 3.81-1.36 7.622-2.292 11.393-.272 1.06-.544 2.16-1.05 3.14-.814 1.494-1.94 2.79-3.377 3.615-1.048.63-2.25.943-3.456 1.218-2.097.433-4.504.67-6.6.198-1.205-.274-2.41-.824-3.457-1.492-1.942-1.218-3.34-3.104-3.922-5.304-.387-1.57-.31-2.985 0-4.557.273-1.493.584-2.946.855-4.44.854-4.203 1.67-8.367 2.485-12.57.35-1.18.466-3.143 2.135-3.143zM371.845 30.8c-1.126-1.493-2.214-2.946-3.34-4.44-.815-1.06-1.63-2.16-2.446-3.22-.39-.55-.82-1.06-1.207-1.61-.427-.59-.815-1.22-.505-1.926.077-.197.31-.354.426-.51l1.05-.944c.543-.432.93-1.02 1.32-1.61.698-.983 1.28-1.965 1.708-3.065.7-1.807 1.242-3.614 1.126-5.618-.077-1.375-.504-2.632-1.203-3.85-2.485-3.614-6.368-3.77-6.368-3.77h-9.593c-1.32 0-1.826 1.256-1.826 1.256-.27.59-.31 1.336-.387 2.003-.04.354-.076.708-.193 1.06-.195 1.14-.39 2.24-.583 3.3-.35 2.044-.738 4.087-1.165 6.13-.7 3.614-1.516 7.268-2.29 10.882-.39 1.728-.74 3.536-1.167 5.303-.078.828.194 1.26.97 1.26h5.28c1.244-.08 1.477-1.14 1.477-1.14.388-1.492.815-2.945 1.165-4.4.115-.51.27-1.02.387-1.53.117-.394.31-.865.427-1.258.077-.274.27-1.256.66-1.18.543.08 1.514 1.338 1.514 1.338.93 1.414 1.863 2.868 2.795 4.282.542.864 1.047 1.65 1.63 2.474.543.747 1.36 1.415 2.33 1.336h7.377c.932.196.622-.55.622-.55zm-9.164-19.84c-.31 1.336-1.395 2.2-2.64 2.554-.27.08-2.91.51-2.716-.118.194-.864.31-1.728.505-2.592.115-.668.27-1.336.387-2.004.04-.275.078-1.14.544-1.06.815 0 1.708.04 2.446.392.97.472 1.747 1.768 1.476 2.83-.154.902.235-.905 0 0zM147.637.393c1.126-.197 2.33-.04 3.456-.04h3.65c1.517 0 1.594 1.808 1.827 2.908.232 1.06.387 2.16.582 3.224.698 3.89 1.397 7.78 2.173 11.707.117.747.388 1.415.854 2.043.427-.51.893-1.02 1.01-1.65.193-.628.31-1.218.504-1.846.233-.904.427-1.807.66-2.672l1.514-6.128c.505-1.965.97-3.93 1.515-5.854.235-.864.545-1.728 1.594-1.728h6.757c.62 0 1.36-.08 1.864.392.39.393.427.983.544 1.533.078.665.233 1.333.31 2 .117.944.31 1.926.428 2.87.272 1.69.543 3.456.815 5.145.35 2.24.62 4.518 1.01 6.718.04.236.078.393.234.59.076.235.232.392.35.59.115.195.115.235.31.077.66-.588.93-1.334 1.203-2.16.27-.942.504-1.885.737-2.828.505-1.886 1.01-3.732 1.515-5.618.542-2.043 1.047-4.125 1.63-6.128.194-.63.35-1.257.543-1.886.117-.393.272-.707.622-.982.582-.51 1.475-.314 2.174-.314.814 0 1.55 0 2.33.04.93 0 1.862 0 2.833-.04.62 0 2.252-.236 1.902.982-.583 1.885-1.165 3.77-1.787 5.657-1.243 3.85-2.447 7.7-3.69 11.55-1.24 3.81-2.446 7.66-3.69 11.47-.31.944-.853 1.573-1.9 1.573h-3.186c-2.096 0-4.154 0-6.25-.04-.428 0-.817-.078-1.166-.392-.35-.354-.39-.825-.505-1.297-.194-1.14-.388-2.24-.582-3.378-.35-2.164-.7-4.364-1.05-6.486-.31-1.846-.62-3.732-.93-5.54-.08-.392-.117-.863-.234-1.256-.078-.433-.078-1.06-.544-1.337-.738-.43-.932 1.298-1.01 1.73l-2.796 14.025c-.117.707-.273 1.414-.428 2.16-.118.668-.31 1.336-.97 1.69-.623.314-1.633.196-2.293.196h-7.92c-.507 0-1.128.08-1.594-.077-.894-.315-.97-1.297-1.126-2.16-.194-1.062-.35-2.122-.543-3.183-.62-3.968-1.282-7.936-1.903-11.904-.66-4.283-1.36-8.604-1.98-12.886.04-.51.077-.983.62-1.06zm163.595.667c-3.067-1.178-6.562-.864-9.552.276-3.495 1.296-6.6 3.77-8.543 6.993-2.174 3.61-3.106 8.25-2.834 12.41.273 3.77 1.63 7.62 4.738 9.9 6.834 5.07 16.154-.117 20.153-6.403 2.137-3.42 3.147-7.622 2.953-11.59-.117-3.614-1.282-7.425-4.117-9.86-.776-.747-1.747-1.336-2.795-1.73-6.096-2.317 7.223 2.79 0 0zm-.93 18.426c-1.63 3.378-5.438 6.05-9.243 5.303-4.155-.828-4.776-5.738-3.844-9.235 1.01-3.85 4.193-7.228 8.27-7.425 1.71-.077 3.495.51 4.66 1.887 1.282 1.532 1.592 3.614 1.32 5.54-.077 1.335-.543 2.67-1.164 3.928-2.098 4.44 2.212-4.557 0 0z" fill="#FFF"/></g></svg>