<svg xmlns="http://www.w3.org/2000/svg" width="215" height="73" viewBox="0 0 215 73"><path fill="#3498db" d="M178.153 5.075c1.308-.054 2.62.007 3.93-.043.13 1.55.012 3.11.065 4.66-1.33.064-2.66.037-3.99.022 0-1.546.004-3.094-.005-4.64zM7.385 8.406c4.967-1.554 9.93-3.13 14.907-4.656.068 4.48-.025 8.963.045 13.445 2.94-.018 5.88.007 8.823-.016.024 3.35-.002 6.697.013 10.045-2.924.04-5.852-.034-8.775.036l-.077.107c-.02 4.173.003 8.348-.01 12.52.007 1.103.047 2.308.742 3.224.595.768 1.61 1.01 2.526 1.128 1.8.193 3.607-.008 5.398-.16.15 3.135.354 6.27.546 9.404-4.076.904-8.306 1.154-12.46.762-3.23-.352-6.638-1.202-9.02-3.547-2.303-2.283-3.068-5.645-3.134-8.786-.03-4.888 0-9.778-.016-14.668-2.27-.018-4.542.004-6.813-.01-.043-1.57-.043-3.144-.01-4.716.002-1.778-.108-3.56.046-5.335 2.42.02 4.838.016 7.26.004.024-2.928.006-5.852.01-8.778zM98.06 8.296c4.866-1.496 9.704-3.102 14.59-4.523-.015 4.466-.01 8.935-.004 13.403 2.942.024 5.885.024 8.827-.002.055 3.354.02 6.708.02 10.06-2.947.007-5.896-.01-8.842.01-.018 4.364-.01 8.73-.005 13.095.02 1.13.19 2.448 1.158 3.188 1.115.773 2.55.777 3.856.782 1.214.003 2.42-.127 3.627-.248.176 3.154.394 6.307.54 9.46-4.184.837-8.492 1.152-12.74.688-2.734-.327-5.536-1.02-7.776-2.695-1.81-1.34-2.99-3.385-3.537-5.543-.688-2.5-.53-5.114-.546-7.678-.007-3.684.01-7.37-.01-11.053-2.296-.015-4.59.003-6.884-.005-.022-3.005.005-6.01-.016-9.015.043-.332-.093-.736.12-1.02 2.414-.024 4.832-.01 7.248-.002.08-2.892-.014-5.786.045-8.68.084-.055.25-.166.33-.222zM74.247 20.42c2.99-2.733 7.36-4.338 11.352-3.09-.14 3.27-.233 6.537-.362 9.805-2.813-.555-5.77-.083-8.382 1.056-1.437.628-2.813 1.63-3.416 3.13-1.24 2.944-1.513 6.186-1.668 9.346-.075 4.352.004 8.705-.043 13.06-5.156.01-10.31.013-15.463-.003-.012-6.712-.002-13.423-.004-20.132-.02-5.464.1-10.944-.352-16.396 4.765-.014 9.527.01 14.29-.01.372 2.65.444 5.325.534 7.994.944-1.736 2-3.448 3.513-4.758z"/><path fill="#525E65" d="M36.063 8.375c5.146-1.68 10.325-3.257 15.49-4.87.026 3.21.01 6.42.01 9.63-5.152.026-10.302 0-15.455.015-.062-1.592.013-3.185-.045-4.775z"/><path fill="#3498db" d="M36.077 17.193c5.146-.02 10.294.024 15.44-.025.106 6.296.015 12.597.047 18.893-.002 5.89.007 11.774-.005 17.663-5.128.004-10.26.038-15.384-.017l-.09-.297c-.006-12.072.014-24.146-.01-36.217zM178.584 18.382c1.046-.014 2.094-.02 3.143.01-.008 11.77-.014 23.54.002 35.312-1.05.05-2.1.03-3.147.017V18.383zM214.88 51.155c-.235-4.427-.168-8.858-.18-13.287-.01-12.267.02-24.535-.01-36.804-1.044-.108-2.087-.063-3.128.023.052 8.096-.133 16.196.166 24.288-.917-1.617-1.91-3.228-3.355-4.435-2.46-2.173-5.736-3.417-9.03-3.256-3.623.04-7.335 1.313-9.853 4-3.09 3.25-4.563 7.73-4.93 12.135-.438 4.83.202 9.958 2.888 14.105 1.707 2.76 4.362 4.978 7.517 5.865 3.27.91 6.936.96 10.037-.564 2.958-1.47 5.33-4.03 6.663-7.042.243 2.496.097 5.027.313 7.534.98.024 1.958.022 2.937-.003.072-.852.036-1.71-.036-2.56zm-3.944-8.976c-.932 3.288-3.02 6.325-6.002 8.07-2.813 1.625-6.37 1.802-9.396.67-2.78-1.074-4.8-3.506-6.035-6.15-1.782-3.782-1.968-8.107-1.492-12.202.432-3.518 1.72-7.104 4.393-9.54 1.43-1.318 3.265-2.17 5.182-2.468 2.95-.472 6.164.046 8.555 1.92 3.02 2.347 4.684 6.065 5.26 9.776.485 3.29.448 6.707-.464 9.923zM167.027 26.185c-1.99-3.833-5.52-6.752-9.54-8.265-4.37-1.65-9.142-1.932-13.76-1.558-4.558.396-9.182 1.824-12.684 4.867-2.97 2.498-4.978 6.056-5.688 9.862-.708 3.842-.586 7.913.79 11.598 1.428 3.835 4.334 7.033 7.878 9.04 3.137 1.78 6.73 2.637 10.307 2.878 1.79-.096 3.584-.072 5.373.024 2.304-.208 4.606-.59 6.803-1.333 3.66-1.2 7-3.472 9.286-6.59 1.946-2.62 3.005-5.832 3.265-9.07.307-3.9-.192-7.96-2.03-11.455zm-14.61 14.15c-.687 1.51-1.95 2.826-3.584 3.27-1.986.532-4.28.12-5.814-1.295-1.64-1.454-2.39-3.663-2.508-5.804-.088-1.926.045-3.914.783-5.713.704-1.723 2.164-3.178 3.995-3.64 1.906-.456 4.108-.18 5.602 1.18 1.534 1.37 2.15 3.46 2.337 5.45.186 2.197.124 4.514-.814 6.553zM170.216 49.14c1.46-.017 2.92-.01 4.38-.006.014 1.527.016 3.058-.002 4.587-1.457.022-2.917.02-4.378.003-.006-1.53-.006-3.057 0-4.584z"/><g fill="#525E65"><path d="M8.383 62.335H9.66l-.188.72c.443-.455.93-.836 1.637-.836.824 0 1.33.486 1.52 1.12.485-.667 1.194-1.12 2.092-1.12 1.003 0 1.66.654 1.66 1.668 0 .297-.096.655-.18.983l-.814 3.044H14.11l.834-3.097c.042-.18.074-.4.074-.56 0-.56-.327-.876-.908-.876-.697 0-1.268.57-1.48 1.396l-.844 3.138h-1.28l.835-3.097c.044-.18.076-.4.076-.56 0-.56-.328-.876-.91-.876-.707 0-1.267.57-1.488 1.396l-.845 3.138H6.895l1.488-5.58zM22.12 66.994c.54 0 .95-.18 1.425-.538l.614.813c-.53.433-1.206.77-2.167.77-1.553 0-2.536-.94-2.536-2.44 0-1.648 1.342-3.38 3.286-3.38 1.426 0 2.23.95 2.23 2.165 0 .392-.096.803-.244 1.204H20.67c.01.834.508 1.404 1.448 1.404zm1.584-2.28c.03-.086.053-.225.053-.382 0-.58-.338-1.067-1.11-1.067-.865 0-1.553.612-1.838 1.448h2.894zM28.987 62.335h1.278l-.19.72c.444-.445.982-.836 1.69-.836 1.036 0 1.7.645 1.7 1.668 0 .297-.083.655-.168.983l-.803 3.044h-1.278l.824-3.097c.053-.18.084-.4.084-.56 0-.56-.36-.876-.972-.876-.718 0-1.31.57-1.532 1.396l-.845 3.138h-1.28l1.492-5.58zM35.813 68.77l.708-.888c.592.442 1.332.707 2.083.707.603 0 1.046-.18 1.363-.496.274-.275.443-.646.58-1.13l.096-.34c-.58.54-1.13.847-1.912.847-1.1 0-2.145-.72-2.145-2.018 0-1.86 1.532-3.234 3.085-3.234 1.056 0 1.53.552 1.84 1.12l.262-1.003h1.278l-1.226 4.606c-.274 1.016-.518 1.48-.95 1.902-.52.52-1.205.782-2.198.782-1.088 0-2.145-.315-2.863-.855zm5.335-4.216c0-.707-.528-1.246-1.352-1.246-1.004 0-1.88.867-1.88 1.922 0 .793.57 1.194 1.29 1.194 1.023 0 1.942-.876 1.942-1.87zM45.365 66.497c0-1.288 1.046-2.008 2.483-2.008.612 0 1.173.106 1.668.273l.032-.114c.043-.17.063-.277.063-.445 0-.497-.358-.823-1.214-.823-.56 0-1.088.126-1.532.306l-.21-1.057c.57-.23 1.235-.38 1.996-.38 1.47 0 2.24.645 2.24 1.733 0 .265-.042.518-.116.79l-.835 3.14H48.68l.19-.73c-.486.52-1.046.846-1.807.846-.96 0-1.7-.602-1.7-1.533zm3.888-.72l.062-.24c-.348-.106-.77-.21-1.268-.21-.855 0-1.373.42-1.373 1.002 0 .484.338.76.888.76.793 0 1.51-.624 1.69-1.312zM55.697 60.2h1.28l-2.072 7.713h-1.28l2.072-7.713zM60.262 62.335h1.278l-1.5 5.578h-1.278l1.5-5.578zm.508-2.07h1.383l-.338 1.214H60.44l.33-1.216zM65.313 62.335h1.278l-.327 1.257c.612-.886 1.342-1.426 2.335-1.362l-.36 1.353h-.073c-1.12 0-2.092.717-2.504 2.26l-.56 2.07h-1.277l1.49-5.578zM74.2 69.54l.274-1.014c.137.032.275.062.423.062.36 0 .645-.265.77-.76l1.48-5.494h1.28l-1.522 5.652c-.328 1.204-1.025 1.648-1.892 1.648-.318.002-.56-.03-.814-.093zm3.454-9.276h1.374l-.33 1.215h-1.372l.328-1.216zM83.77 66.994c.54 0 .952-.18 1.427-.538l.612.813c-.528.433-1.205.77-2.166.77-1.553 0-2.536-.94-2.536-2.44 0-1.648 1.342-3.38 3.286-3.38 1.427 0 2.23.95 2.23 2.165 0 .392-.096.803-.244 1.204h-4.058c.012.834.51 1.404 1.45 1.404zm1.586-2.28c.032-.086.053-.225.053-.382 0-.58-.34-1.067-1.11-1.067-.867 0-1.554.612-1.84 1.448h2.896zM90.64 62.335h1.28l-.33 1.257c.613-.886 1.343-1.426 2.335-1.362l-.36 1.353h-.073c-1.12 0-2.092.717-2.504 2.26l-.56 2.07H89.15l1.49-5.578zM97.106 62.335h1.278l-.19.72c.443-.445.983-.836 1.69-.836 1.036 0 1.7.645 1.7 1.668 0 .297-.084.655-.168.983l-.803 3.044h-1.28l.825-3.097c.053-.18.085-.4.085-.56 0-.56-.36-.876-.972-.876-.717 0-1.31.57-1.53 1.396l-.846 3.138h-1.28l1.492-5.58zM105.823 62.335h1.278l-1.5 5.578h-1.277l1.5-5.578zm.507-2.07h1.384l-.338 1.214h-1.374l.328-1.216zM111.444 60.2h1.278l-.76 2.854c.443-.444.98-.836 1.69-.836 1.034 0 1.7.646 1.7 1.67 0 .297-.085.655-.17.983l-.803 3.043h-1.28l.824-3.096c.053-.18.085-.4.085-.56 0-.56-.36-.876-.973-.876-.72 0-1.31.57-1.532 1.396l-.845 3.137h-1.28l2.064-7.713zM124.8 62.335h1.278l-.19.72c.444-.455.93-.836 1.64-.836.822 0 1.33.486 1.52 1.12.486-.667 1.193-1.12 2.092-1.12 1.003 0 1.66.654 1.66 1.668 0 .297-.096.655-.18.983l-.815 3.044h-1.278l.835-3.097c.042-.18.074-.4.074-.56 0-.56-.327-.876-.91-.876-.696 0-1.267.57-1.478 1.396l-.845 3.138h-1.278l.835-3.097c.042-.18.073-.4.073-.56 0-.56-.327-.876-.908-.876-.707 0-1.268.57-1.49 1.396l-.844 3.138h-1.277l1.486-5.58zM138.535 66.994c.54 0 .95-.18 1.426-.538l.614.813c-.528.433-1.205.77-2.166.77-1.553 0-2.536-.94-2.536-2.44 0-1.648 1.343-3.38 3.286-3.38 1.426 0 2.23.95 2.23 2.165 0 .392-.095.803-.242 1.204h-4.058c.01.834.507 1.404 1.447 1.404zm1.585-2.28c.03-.086.053-.225.053-.382 0-.58-.338-1.067-1.108-1.067-.867 0-1.553.612-1.84 1.448h2.895zM145.403 62.335h1.278l-.188.72c.443-.445.98-.836 1.69-.836 1.034 0 1.7.645 1.7 1.668 0 .297-.085.655-.17.983l-.802 3.044h-1.278l.823-3.097c.054-.18.085-.4.085-.56 0-.56-.36-.876-.972-.876-.72 0-1.312.57-1.532 1.396l-.845 3.138h-1.278l1.49-5.58zM152.958 65.558c0-1.827 1.52-3.34 3.296-3.34 1.194 0 1.88.593 2.263 1.27l-.994.676c-.295-.476-.655-.835-1.373-.835-1.004 0-1.912 1.034-1.912 2.22 0 .875.602 1.393 1.32 1.393.56 0 .982-.23 1.427-.623l.676.834c-.58.53-1.204.888-2.145.888-1.437-.002-2.557-.963-2.557-2.484zM163.523 66.994c.54 0 .95-.18 1.427-.538l.613.813c-.53.433-1.205.77-2.166.77-1.553 0-2.536-.94-2.536-2.44 0-1.648 1.343-3.38 3.285-3.38 1.428 0 2.23.95 2.23 2.165 0 .392-.095.803-.243 1.204h-4.058c.012.834.51 1.404 1.45 1.404zm1.585-2.28c.03-.086.053-.225.053-.382 0-.58-.337-1.067-1.107-1.067-.866 0-1.555.612-1.84 1.448h2.895zM170.392 62.335h1.28l-.33 1.257c.612-.886 1.342-1.426 2.335-1.362l-.358 1.353h-.075c-1.12 0-2.093.717-2.505 2.26l-.56 2.07h-1.278l1.49-5.578zM175.295 66.497c0-1.288 1.046-2.008 2.482-2.008.61 0 1.174.106 1.67.273l.03-.114c.043-.17.064-.277.064-.445 0-.497-.36-.823-1.215-.823-.56 0-1.088.126-1.53.306l-.214-1.057c.572-.23 1.24-.38 2-.38 1.467 0 2.24.645 2.24 1.733 0 .265-.044.518-.117.79l-.834 3.14h-1.26l.19-.73c-.486.52-1.046.846-1.806.846-.96 0-1.7-.602-1.7-1.533zm3.887-.72l.063-.24c-.348-.106-.77-.21-1.268-.21-.855 0-1.373.42-1.373 1.002 0 .484.34.76.887.76.795 0 1.513-.624 1.692-1.312zM185.544 60.2h1.277l-.76 2.854c.444-.444.982-.836 1.69-.836 1.036 0 1.702.646 1.702 1.67 0 .297-.085.655-.17.983l-.803 3.043h-1.28l.824-3.096c.054-.18.086-.4.086-.56 0-.56-.36-.876-.974-.876-.718 0-1.31.57-1.532 1.396l-.845 3.137h-1.28l2.064-7.713zM194.195 60.2h1.278l-1.203 4.513 2.854-2.378h1.69l-2.812 2.27 1.342 3.308h-1.437l-.993-2.483-1.078.867-.434 1.616h-1.278l2.07-7.713zM200.367 66.497c0-1.288 1.047-2.008 2.482-2.008.612 0 1.173.106 1.67.273l.03-.114c.043-.17.063-.277.063-.445 0-.497-.36-.823-1.214-.823-.562 0-1.09.126-1.534.306l-.21-1.057c.57-.23 1.235-.38 1.995-.38 1.47 0 2.24.645 2.24 1.733 0 .265-.04.518-.115.79l-.834 3.14h-1.257l.19-.73c-.486.52-1.046.846-1.807.846-.96 0-1.7-.602-1.7-1.533zm3.888-.72l.064-.24c-.35-.106-.772-.21-1.27-.21-.854 0-1.373.42-1.373 1.002 0 .484.338.76.888.76.792 0 1.51-.624 1.69-1.312zM210.045 62.335h1.28l-.19.72c.443-.445.982-.836 1.69-.836 1.035 0 1.7.645 1.7 1.668 0 .297-.085.655-.17.983l-.802 3.044h-1.28l.825-3.097c.053-.18.084-.4.084-.56 0-.56-.358-.876-.973-.876-.72 0-1.31.57-1.532 1.396l-.844 3.138h-1.28l1.49-5.58z"/></g></svg>